<?xml version="1.0" encoding="UTF-8"?>
<svg id="Calque_1" data-name="Calque 1" xmlns="http://www.w3.org/2000/svg" xmlns:xlink="http://www.w3.org/1999/xlink" viewBox="0 0 318.21 131.4">
  <defs>
    <style>
      .cls-1 {
        clip-path: url(#clippath);
      }

      .cls-2 {
        fill: none;
      }

      .cls-2, .cls-3 {
        stroke-width: 0px;
      }

      .cls-3 {
        fill: #1d1d1b;
      }
    </style>
    <clipPath id="clippath">
      <rect class="cls-2" y="0" width="318.21" height="131.4"/>
    </clipPath>
  </defs>
  <g class="cls-1">
    <path class="cls-3" d="m285.17,34.88c.83.07,1.4-.12,1.71-.58.32-.46.47-1,.46-1.64-.01-.63-.1-1.35-.25-2.15l-.81-.07c.12.64.14,1.26.08,1.88-.06.62-.32.9-.77.87-.38-.03-.74-.17-1.08-.42-.33-.25-.82-.77-1.46-1.58-.64-.81-1.58-2.11-2.81-3.9-.12-.17-.23-.34-.31-.51-.14-.29-.16-.52-.07-.69.09-.17.29-.3.61-.41,1.4-.44,2.47-1.08,3.19-1.94.72-.86.75-2,.07-3.45-.25-.53-.61-1.02-1.07-1.47-.47-.46-1.02-.83-1.66-1.13-.64-.3-1.32-.48-2.05-.54-.55-.05-1.02-.01-1.42.11-.39.12-.79.29-1.19.51-.16.08-.31.15-.46.21-.15.06-.28.09-.39.08-.18-.01-.36-.08-.53-.21s-.3-.28-.39-.47c-.07-.14-.1-.26-.1-.37l-1.15-9.52-5.68-.48.16.92,1.22.1c.8.07,1.35.42,1.65,1.06.17.35.26.68.29.98l2.99,23.41,2.7.23-1.09-8.36c-.16-1.22-.19-2.38-.08-3.49.11-1.11.41-2.01.9-2.72.5-.71,1.22-1.02,2.18-.94.56.05,1.1.27,1.63.67.52.4.92.89,1.2,1.49.59,1.26.6,2.29.02,3.1-.58.81-1.51,1.37-2.79,1.68-.8-.77-1.44-1.17-1.92-1.21-.25-.02-.42.05-.51.21-.09.16-.07.36.04.6.14.29.4.55.8.79.39.24.93.4,1.61.5.2.27.38.59.56.97.21.44.41.94.6,1.5.19.56.31.89.34.99.34,1.04.63,1.82.88,2.33.29.62.67,1.14,1.13,1.59.46.44.96.79,1.49,1.04.53.25,1.04.39,1.53.44m-28.94-15.52l3.73,14.73,2.79-.12-1.27-5.02c-.47-1.83-.71-3.58-.72-5.23,0-1.65.2-2.99.63-4.01.42-1.02,1.03-1.55,1.83-1.58.17,0,.33.02.5.09.16.07.28.15.35.26l.02.04c.07.11.02.23-.14.37-.22.2-.34.44-.38.71-.04.27.08.62.35,1.04.27.42.64.76,1.13,1,.49.24.95.36,1.4.34.35-.01.64-.12.86-.33.23-.21.33-.5.32-.89,0-.38-.17-.83-.49-1.33-.27-.42-.63-.8-1.08-1.14-.45-.34-.94-.6-1.47-.78-.53-.18-1.03-.26-1.51-.24-.62.03-1.15.22-1.58.59-.43.37-.79.88-1.1,1.53-.22.47-.39.76-.52.88-.12.12-.27.18-.43.19-.29.01-.59-.16-.89-.5-.65-.76-1.25-1.34-1.79-1.76-.54-.42-1.06-.61-1.55-.6-1.24.05-1.88,1.3-1.92,3.74l.94-.04c.03-.79.14-1.45.34-1.97.2-.52.49-.79.88-.8.23,0,.42.12.59.37.07.12.14.28.19.48m-16.43,11.34l-1.64-4.19c-.67-1.68-.82-2.96-.46-3.84.36-.88,1.07-1.41,2.12-1.58.76-.12,1.54-.11,2.34.06.8.17,1.57.47,2.3.9.73.43,1.37.98,1.92,1.65.5.61.89,1.27,1.16,1.98l1.66,4.19c.67,1.68.82,2.96.46,3.84-.36.88-1.07,1.41-2.12,1.58-.76.12-1.54.1-2.34-.06-.8-.17-1.57-.47-2.32-.92-.74-.44-1.38-1-1.93-1.66-.48-.59-.87-1.24-1.15-1.95m8.43,5.42c1.47-.24,2.57-.84,3.31-1.79.74-.95,1.12-2.06,1.15-3.33.03-1.27-.21-2.5-.73-3.7-.29-.65-.69-1.28-1.2-1.9-.89-1.08-2.02-2.06-3.4-2.92-1.38-.86-2.81-1.5-4.27-1.91-1.47-.41-2.78-.52-3.94-.33-1.47.24-2.58.84-3.32,1.79-.74.95-1.13,2.06-1.16,3.33-.03,1.27.22,2.5.75,3.7.29.65.69,1.28,1.2,1.9.89,1.08,2.03,2.06,3.41,2.92s2.8,1.5,4.27,1.91c1.47.41,2.78.52,3.94.33m-26.63-.72l-.45-.41c-1.08-.98-1.96-1.92-2.64-2.81-.68-.89-1.08-1.65-1.19-2.27-.11-.62.12-1.02.68-1.2.45-.14.94-.12,1.47.08.53.2,1.07.54,1.62,1.04,1.46,1.33,2.44,2.92,2.95,4.79.13.51.17.95.13,1.3-.04.35-.17.57-.39.64-.22.07-.52,0-.92-.23-.4-.22-.82-.53-1.26-.93m1.21,7.37c.71-.23,1.25-.6,1.63-1.11.38-.51.67-1.17.86-1.98,1.85.94,3.51,1.17,4.97.7,1.59-.51,2.53-1.54,2.81-3.11s-.01-3.31-.89-5.24c-.87-1.93-2.13-3.64-3.77-5.14-.57-.51-1.2-.96-1.9-1.33-.7-.37-1.39-.62-2.08-.75-.69-.13-1.3-.12-1.82.05-.37.12-.63.32-.81.61-.17.29-.21.61-.11.98.09.37.33.72.69,1.06.43.39.98.69,1.64.9s1.21.24,1.64.1c.33-.11.55-.22.65-.35.1-.13.17-.28.19-.47.02-.11.05-.19.09-.26.04-.06.11-.11.21-.14.32-.1.71.06,1.17.48,1.23,1.12,2.23,2.47,3.01,4.04s1.09,3,.96,4.29c-.13,1.29-.84,2.14-2.12,2.55-.66.21-1.35.28-2.05.2-.7-.08-1.46-.32-2.27-.71.01-1.14-.16-2.33-.52-3.58-.36-1.25-.88-2.44-1.56-3.58s-1.46-2.12-2.35-2.93c-.67-.61-1.37-1.04-2.12-1.3-.74-.26-1.42-.29-2.04-.1-1,.32-1.35,1.07-1.06,2.25s.99,2.53,2.11,4.04c1.12,1.51,2.35,2.88,3.69,4.1.95.87,1.82,1.54,2.58,2.01-.06.79-.25,1.42-.57,1.9-.32.47-.81.82-1.48,1.03-.53.17-1.05.18-1.58.05-.53-.13-1.02-.41-1.47-.82-.37-.34-.74-.86-1.11-1.58l-3.26-6.13c-.56-1.02-1.24-1.89-2.03-2.61-.7-.64-1.41-1.11-2.15-1.42-.73-.31-1.4-.37-2.01-.17-.51.17-.86.65-1.03,1.45-.17.8-.01,1.95.48,3.46l.84-.27c-.27-.96-.39-1.81-.37-2.54.02-.73.23-1.16.64-1.29.32-.1.6-.04.85.18.15.14.33.42.54.83l3.16,6.17c.54,1.01,1.29,1.95,2.24,2.82,1.13,1.03,2.31,1.81,3.54,2.33s2.34.64,3.32.32m-11.63,5.07c1.05-.5,1.54-1.35,1.45-2.57-.09-1.21-.86-2.78-2.33-4.69l-.8.38c1.23,1.68,1.9,3.03,2.02,4.06.11,1.03-.25,1.74-1.1,2.14-.35.16-.74.22-1.17.16-.43-.06-.85-.23-1.28-.53-.31-.21-.61-.51-.92-.9l-6.81-8.91c-.3-.38-.43-.68-.38-.91.05-.23.25-.43.58-.58l3.8-1.79-.56-.75-3.52,1.66c-.29.14-.59.19-.9.16-.31-.03-.6-.14-.89-.34-.21-.14-.4-.34-.59-.58l-2.63-3.42-.73.35c1.07,1.74,1.51,3.18,1.34,4.32-.18,1.14-.92,2.1-2.23,2.87l.39.59,1.75-.82c.29-.14.59-.19.9-.16.31.03.6.14.89.34.19.13.39.33.59.58l3.81,4.94c.82,1.06,1.83,2.01,3.02,2.84,1.14.79,2.28,1.34,3.41,1.65,1.13.31,2.09.28,2.89-.1m-24.55,1.05c-.8-.45-1.4-1.01-1.79-1.69s-.52-1.36-.36-2.03c.15-.67.59-1.22,1.32-1.65.72-.43,1.51-.64,2.37-.62.86.01,1.65.23,2.38.63.84.47,1.44,1.04,1.81,1.72.37.68.46,1.36.26,2.04s-.68,1.24-1.44,1.7c-.64.38-1.38.56-2.21.54-.83-.02-1.61-.23-2.32-.63m12.09,5.76c.61-.36,1.1-.87,1.46-1.53.36-.66.49-1.43.4-2.31-.1-.89-.51-1.82-1.22-2.81l-.85.51c.83,1.29,1.14,2.41.96,3.37-.19.96-.72,1.71-1.61,2.24-.52.31-1.12.48-1.8.52-.68.04-1.36-.02-2.04-.19-.68-.16-1.28-.39-1.79-.68-1.26-.71-1.98-1.33-2.18-1.86-.19-.54.12-1.07.95-1.6,1.22-.79,2.25-1.68,3.08-2.67.83-.98,1.25-1.96,1.24-2.93,0-.97-.62-1.8-1.86-2.49-.68-.38-1.49-.62-2.44-.73s-1.91-.07-2.9.12c-.99.19-1.86.51-2.63.96-1.29.77-2.1,1.81-2.41,3.12-.32,1.31-.14,2.64.54,3.98.68,1.34,1.76,2.43,3.25,3.26,1.15.65,2.44,1.21,3.87,1.7,1.43.49,2.86.76,4.3.83,1.44.07,2.67-.2,3.69-.81m-10.07,6.69c.43-.34.59-.91.46-1.72-.13-.8-.69-1.82-1.7-3.05l-.72.57c.58.8.98,1.54,1.21,2.22s.18,1.14-.13,1.39c-.26.21-.55.25-.86.13-.18-.07-.45-.27-.82-.6l-4.88-4.74c-.36-.36-.82-.7-1.36-1.03-.54-.33-1.12-.62-1.74-.86-.89-.36-1.8-.61-2.72-.76-.92-.15-1.8-.17-2.62-.06-.82.11-1.5.38-2.03.8-.46.36-.75.79-.88,1.26-.12.48-.14,1.05-.07,1.7.09.68.12,1.12.1,1.32-.02.2-.08.34-.19.42-.15.12-.34.18-.57.18-.23,0-.54-.04-.93-.12-.73-.12-1.31-.21-1.72-.25-.41-.04-.79-.03-1.12.02-.33.06-.63.19-.9.4-.96.76-.74,2.14.65,4.15l.72-.57c-.45-.66-.74-1.26-.87-1.8-.14-.54-.06-.93.25-1.17.1-.07.2-.11.32-.11.12,0,.24.03.36.08.13.05.27.14.44.28l11.69,9.73,2.15-1.7-2.43-2.03c-1.73-1.44-3.18-2.93-4.37-4.47-1.18-1.54-1.95-2.92-2.3-4.15-.35-1.22-.17-2.11.53-2.66.43-.34.92-.54,1.47-.61.54-.06,1.1.02,1.67.24.61.24,1.14.61,1.59,1.09l4.64,4.68c.57.59,1.38,1.09,2.43,1.51.67.27,1.36.46,2.06.59.71.12,1.34.16,1.91.12.57-.05,1-.19,1.29-.42"/>
    <path class="cls-3" d="m309.12,126.13l3.18-9.69c.48-1.42.82-2.62,1.02-3.58.2-.97.27-1.79.21-2.47-.06-.68-.27-1.25-.62-1.71-.61-.79-1.37-.92-2.26-.39-.89.52-1.91,1.52-3.04,2.98l.5.64c.67-.88,1.31-1.52,1.92-1.94.61-.41,1.08-.41,1.41.02.18.23.24.6.18,1.12-.05.52-.27,1.36-.66,2.53l-3.51,10.58c-.03.06-.09.27-.2.62-.11.35-.38,1.06-.81,2.13-.37.9-.87,1.64-1.51,2.23-.64.59-1.31.89-2.03.9-.71.01-1.36-.35-1.93-1.09-.15-.19-.25-.41-.3-.65-.05-.24-.05-.44,0-.58.02-.05.08-.08.17-.08.09,0,.21,0,.34.03.29.04.52-.02.71-.17.19-.15.34-.39.48-.71.2-.49.26-1.04.18-1.66-.08-.62-.29-1.15-.64-1.61-.35-.45-.72-.59-1.12-.44-.4.15-.74.57-1.01,1.25-.21.53-.32,1.13-.31,1.81.01.68.12,1.34.33,1.99.21.65.49,1.21.85,1.67,1.14,1.47,2.87,1.88,5.18,1.22,2.31-.66,4.6-2.02,6.87-4.1,2.27-2.07,3.88-4.28,4.83-6.62.48-1.18.7-2.3.66-3.37-.04-1.06-.33-1.93-.86-2.62-.43-.55-.88-.75-1.35-.59-.47.15-.87.62-1.18,1.39-.21.51-.3,1.09-.27,1.74.03.65.18,1.15.46,1.51.2.26.38.41.54.47.16.06.33.08.52.07.13-.01.23,0,.31.01.08.02.15.07.21.16.08.1.12.25.12.43,0,.18-.05.39-.14.62-.37.91-1.1,2.05-2.2,3.42s-2.16,2.47-3.2,3.31c-1.04.85-1.71,1.08-2,.7-.14-.18-.22-.38-.23-.58-.01-.21.05-.51.18-.92m-8.31-26.71l-8.49,12.6,1.95,2.01,2.89-4.3c1.05-1.57,2.19-2.91,3.42-4.02,1.23-1.11,2.36-1.84,3.41-2.21,1.04-.36,1.84-.26,2.4.31.12.12.21.26.27.43.06.17.07.31.04.43v.04c-.05.12-.17.17-.38.14-.3-.03-.56.04-.78.19-.23.15-.41.47-.55.95-.14.48-.13.99,0,1.51.14.53.37.95.68,1.27.24.25.52.39.82.42.31.03.6-.09.88-.35.28-.26.5-.68.66-1.26.14-.48.18-1,.13-1.56-.05-.56-.19-1.1-.4-1.62-.22-.51-.49-.95-.83-1.29-.44-.45-.93-.71-1.49-.78-.56-.07-1.18,0-1.87.2-.5.15-.83.21-1,.2-.17-.01-.31-.08-.43-.2-.2-.21-.27-.54-.22-1,.13-.99.17-1.82.12-2.5-.05-.68-.25-1.2-.59-1.55-.86-.89-2.22-.53-4.07,1.06l.65.67c.61-.51,1.17-.86,1.7-1.06.52-.2.92-.16,1.18.12.16.16.2.39.11.69-.04.13-.11.29-.23.46m-19.5-4.56l2.04-4.01c.81-1.61,1.67-2.58,2.57-2.9.9-.32,1.76-.14,2.6.53.6.48,1.1,1.08,1.51,1.79.41.71.7,1.48.86,2.32.16.83.18,1.68.05,2.53-.12.78-.36,1.51-.71,2.19l-2.02,4.02c-.81,1.61-1.67,2.58-2.57,2.9-.9.32-1.76.14-2.6-.53-.6-.48-1.1-1.08-1.51-1.79-.41-.71-.7-1.49-.86-2.34-.16-.85-.18-1.7-.04-2.55.12-.75.35-1.47.69-2.16m1.56,9.9c1.16.94,2.34,1.36,3.54,1.28,1.2-.08,2.28-.53,3.26-1.36.97-.82,1.73-1.82,2.27-3.01.29-.65.5-1.37.62-2.16.22-1.39.19-2.88-.09-4.48-.27-1.6-.75-3.09-1.42-4.46-.67-1.37-1.46-2.42-2.38-3.16-1.16-.94-2.34-1.37-3.54-1.29-1.2.08-2.29.53-3.26,1.35-.97.82-1.73,1.83-2.26,3.02-.29.65-.5,1.37-.62,2.16-.22,1.38-.19,2.88.09,4.48.27,1.6.75,3.09,1.42,4.46.67,1.37,1.46,2.42,2.38,3.16m-14.48-22.95c.02-.92.24-1.71.66-2.38.42-.67.96-1.09,1.62-1.27.67-.18,1.36-.05,2.08.39.72.44,1.27,1.04,1.66,1.8.39.76.57,1.56.55,2.4-.02.96-.25,1.76-.67,2.41-.43.65-.99,1.04-1.68,1.18-.69.14-1.42-.02-2.18-.48-.64-.39-1.14-.96-1.51-1.7-.37-.75-.55-1.53-.53-2.35m.57,13.38c.61.37,1.28.56,2.03.58.75.01,1.49-.23,2.23-.73.73-.5,1.37-1.3,1.91-2.39l-.85-.52c-.75,1.33-1.6,2.14-2.53,2.42-.94.29-1.85.16-2.73-.38-.51-.31-.95-.76-1.3-1.34-.35-.58-.62-1.21-.79-1.89-.17-.67-.25-1.31-.23-1.91.04-1.44.24-2.38.63-2.79.38-.42,1-.39,1.86.09,1.27.71,2.54,1.2,3.8,1.47,1.26.27,2.32.18,3.17-.27.86-.46,1.3-1.39,1.33-2.81.02-.78-.15-1.61-.49-2.5-.35-.89-.84-1.72-1.46-2.51-.63-.78-1.32-1.41-2.08-1.87-1.28-.78-2.58-1.01-3.89-.67-1.31.33-2.4,1.11-3.27,2.34-.87,1.22-1.32,2.69-1.36,4.4-.03,1.32.07,2.72.31,4.21s.67,2.89,1.28,4.19c.61,1.3,1.43,2.27,2.45,2.89m-10.58-5.84c.32.15.68.15,1.08.03.41-.12.84-.45,1.3-.98.46-.53.9-1.3,1.33-2.31l-.84-.38c-.45.88-.92,1.57-1.42,2.09-.49.51-.93.69-1.3.52-.32-.15-.49-.38-.52-.71-.01-.12,0-.27.04-.44.04-.17.08-.35.13-.55l1.98-6.51c.29-1,.37-2.2.24-3.6-.09-.95-.28-1.88-.57-2.78-.29-.9-.67-1.69-1.14-2.37-.47-.68-1.01-1.16-1.62-1.44-.51-.23-.96-.33-1.34-.29-.38.04-.87.24-1.46.59-.33.19-.57.31-.71.34-.15.03-.31,0-.49-.07-.18-.08-.31-.2-.41-.37-.1-.16-.16-.35-.18-.56-.02-.18-.01-.34.02-.47l2.27-10.3-5.08-2.32-.16.92,1.12.51c.74.34,1.15.86,1.22,1.57.03.33,0,.67-.08,1.02l-5.03,23.07,2.36,1.08.62-2.85c.49-2.22,1.15-4.23,1.97-6.04.83-1.8,1.71-3.15,2.66-4.05.94-.9,1.83-1.16,2.65-.78.5.23.91.57,1.22,1.03.31.46.49.99.55,1.6.05.5-.03,1.13-.24,1.91l-1.91,6.64c-.13.48-.22,1.01-.27,1.59-.05.58-.05,1.14,0,1.7.09.94.3,1.77.65,2.49.34.72.8,1.22,1.38,1.48m-18.44-7.47c1.11.37,2.05.08,2.82-.86s1.29-2.61,1.56-5l-.84-.28c-.27,2.07-.71,3.51-1.34,4.33-.63.82-1.39,1.09-2.28.79-.37-.12-.68-.35-.95-.69-.27-.34-.46-.76-.56-1.26-.08-.37-.09-.8-.04-1.29l1.21-11.15c.04-.48.16-.79.35-.92.2-.13.47-.14.82-.02l3.99,1.32.11-.93-3.7-1.23c-.31-.1-.56-.27-.76-.5-.2-.23-.34-.52-.41-.86-.05-.25-.06-.52-.03-.83l.46-4.29-.77-.25c-.43,2-1.1,3.35-2.01,4.05-.91.7-2.11.88-3.6.54l-.13.7,1.83.61c.31.1.56.27.76.5.2.23.34.52.41.86.05.23.06.51.03.83l-.65,6.2c-.14,1.33-.06,2.72.23,4.14.28,1.36.72,2.54,1.33,3.55.61,1,1.32,1.65,2.16,1.92"/>
    <path class="cls-3" d="m42.35,9.26c.67-.95.67-1.93,0-2.95s-2.12-1.99-4.34-2.94l-.51.72c1.9.85,3.15,1.7,3.76,2.54.61.84.64,1.64.1,2.41-.22.31-.53.55-.93.71-.4.16-.86.22-1.37.17-.37-.03-.79-.15-1.24-.33l-10.32-4.39c-.45-.18-.71-.38-.78-.6-.07-.23,0-.49.22-.79l2.42-3.43-.86-.38-2.25,3.18c-.19.26-.42.46-.7.59-.28.13-.59.17-.94.14-.25-.02-.51-.09-.8-.21l-3.98-1.68-.47.66c1.79.99,2.89,2.02,3.3,3.1.41,1.08.24,2.28-.52,3.6l.63.32,1.11-1.58c.19-.26.42-.46.7-.59.28-.13.59-.17.94-.14.23.02.5.09.8.21l5.75,2.42c1.24.52,2.58.85,4.03.98,1.38.13,2.64.05,3.78-.24,1.14-.29,1.96-.79,2.47-1.51m-7.41,11.76c.69-1.17.96-2.21.81-3.12-.14-.91-.57-1.61-1.27-2.1-.7-.49-1.5-.74-2.4-.75-1.19,0-2.36.27-3.5.84-1.14.57-2.28,1.32-3.43,2.25l-.91.73c-.66.54-1.21.96-1.66,1.28-.44.31-.9.58-1.38.79-.48.21-.94.31-1.38.31-.74,0-1.31-.17-1.72-.48-.41-.32-.62-.75-.63-1.32-.01-.56.19-1.2.6-1.9.27-.46.55-.83.85-1.13.3-.3.58-.52.83-.66.26-.14.46-.21.61-.21.1,0,.16.03.2.1.04.07.06.18.05.32.01.29.08.52.2.68.12.16.42.25.89.25.56,0,1.09-.14,1.59-.43s.89-.66,1.15-1.11c.3-.52.34-.95.11-1.3-.23-.35-.72-.53-1.49-.53-.6,0-1.27.16-2.01.48-.75.32-1.48.79-2.19,1.4-.71.61-1.3,1.31-1.77,2.11-.56.95-.78,1.86-.67,2.71.11.85.5,1.53,1.16,2.05.66.52,1.46.78,2.42.79,1.05,0,2.12-.25,3.2-.76,1.08-.51,2.1-1.17,3.06-1.98l.85-.7c.97-.82,1.85-1.44,2.66-1.86.81-.43,1.68-.64,2.6-.63.67,0,1.22.14,1.65.42.43.27.67.69.7,1.25.03.56-.19,1.26-.68,2.09-.29.5-.6.92-.94,1.26-.33.34-.65.6-.94.77-.29.17-.53.25-.71.25-.07,0-.11-.04-.13-.11s-.03-.16-.04-.27c-.06-.32-.16-.58-.31-.76-.14-.18-.46-.28-.94-.28-.61,0-1.19.15-1.75.47s-.97.71-1.24,1.18c-.33.56-.35,1.02-.07,1.38.28.36.87.54,1.76.55.61,0,1.3-.17,2.07-.52.77-.35,1.52-.85,2.25-1.51.73-.66,1.35-1.42,1.87-2.29M6.13,30.36c.53-.05,1.05-.24,1.58-.58.53-.34.89-.73,1.1-1.17.24-.52.24-.95-.02-1.29-.25-.34-.69-.48-1.29-.42-.53.05-1.05.24-1.58.58-.53.34-.9.74-1.11,1.2-.24.51-.23.93.03,1.27.26.33.69.47,1.3.42m7.45,3.69l.39-.83c-.69-.39-1.23-.79-1.59-1.21-.37-.42-.47-.81-.31-1.16.05-.11.13-.19.24-.24.11-.05.23-.08.35-.09.14-.01.31,0,.51.05l9.31,2.38c.61.16,1.39.2,2.33.12,1.16-.1,2.24-.37,3.25-.79,1-.42,1.65-.94,1.94-1.56.14-.29.14-.63,0-1-.14-.37-.48-.77-1.03-1.19-.55-.42-1.33-.83-2.36-1.22l-.37.8c.89.37,1.61.79,2.17,1.28.56.48.75.92.57,1.3-.07.14-.17.26-.32.36-.14.1-.31.15-.49.17-.12.01-.26,0-.41-.02-.15-.02-.32-.05-.52-.09l-9.84-2.3c-.74-.15-1.44-.2-2.1-.14-.95.09-1.83.31-2.62.66-.79.35-1.31.8-1.56,1.33-.52,1.11.3,2.24,2.46,3.4m12.01,7.13c.41-1.09.17-2.04-.74-2.85-.91-.81-2.55-1.4-4.93-1.76l-.31.83c2.05.35,3.48.86,4.27,1.52.8.66,1.03,1.43.7,2.31-.14.36-.38.67-.73.93-.35.26-.77.43-1.28.51-.37.06-.8.06-1.29-.01l-11.09-1.68c-.48-.06-.78-.19-.9-.39-.12-.2-.12-.48.01-.82l1.49-3.93-.93-.15-1.38,3.64c-.12.3-.29.55-.53.74-.24.19-.53.31-.87.37-.25.04-.52.04-.83,0l-4.27-.63-.29.76c1.98.51,3.3,1.24,3.97,2.18.66.94.8,2.15.39,3.61l.69.16.68-1.8c.11-.3.29-.55.53-.74.24-.19.53-.32.87-.37.23-.04.51-.03.83,0l6.17.91c1.33.19,2.71.18,4.15-.06,1.37-.22,2.57-.62,3.6-1.18,1.03-.56,1.7-1.25,2.01-2.07M4.45,58.5l15.17.91.74-2.7-5.17-.31c-1.89-.11-3.62-.41-5.2-.9-1.58-.49-2.79-1.1-3.63-1.81-.85-.71-1.16-1.45-.95-2.22.04-.16.12-.31.24-.45.11-.14.23-.22.35-.25h.04c.12-.04.22.04.31.23.13.27.31.46.56.58.25.12.61.11,1.1-.01.48-.13.91-.39,1.3-.78.38-.39.63-.8.75-1.23.09-.34.07-.64-.06-.92-.13-.28-.38-.47-.75-.58-.37-.11-.84-.08-1.42.07-.48.13-.95.36-1.41.69-.46.33-.85.72-1.19,1.17-.34.45-.57.9-.69,1.37-.16.6-.14,1.16.08,1.68.22.52.59,1.02,1.12,1.51.38.35.6.61.68.76.08.15.09.31.05.47-.08.28-.33.51-.75.7-.92.39-1.66.78-2.22,1.17-.56.39-.91.82-1.04,1.3-.33,1.19.67,2.18,2.98,2.96l.25-.9c-.75-.27-1.34-.57-1.78-.92-.43-.35-.6-.71-.5-1.08.06-.22.24-.37.53-.45.13-.04.31-.05.52-.04m6.27,20.22l-4.92.31c-1.73.11-2.98-.02-3.76-.39s-1.11-1.01-.98-1.93c.08-.57.36-1.2.86-1.89.49-.69,1.14-1.34,1.93-1.95.79-.62,1.66-1.12,2.6-1.5,1.77-.72,3.48-1.02,5.13-.88,1.65.14,2.96.59,3.94,1.36.98.76,1.39,1.65,1.26,2.65-.11.79-.44,1.49-1,2.11-.56.62-1.29,1.11-2.19,1.48-.84.34-1.79.55-2.85.63m7.03-4.48c.1-.71.04-1.31-.18-1.77-.22-.47-.6-1.02-1.16-1.64-.17-.19-.28-.35-.34-.47-.06-.12-.07-.27-.05-.45.02-.17.12-.34.28-.53.17-.18.42-.44.77-.78.53-.5.94-.94,1.24-1.32.3-.38.48-.79.54-1.22.04-.32-.06-.64-.31-.95-.25-.31-.7-.6-1.34-.84-.65-.25-1.51-.41-2.59-.48l-.12.88c.96.09,1.77.29,2.45.58.68.3.98.65.93,1.07-.05.35-.22.58-.53.71-.22.09-.55.16-.99.2l-14.65,1.12-.1.73.91.91c.2.2.34.4.41.62.07.22.08.5.03.86-.04.27-.15.57-.33.88-.18.31-.45.72-.81,1.23-.51.72-.91,1.35-1.2,1.89-.29.55-.48,1.13-.57,1.75-.18,1.36.18,2.52,1.09,3.49.91.97,2.15,1.57,3.7,1.81,1.56.24,3.14.03,4.74-.62,1.27-.52,2.51-1.2,3.73-2.05,1.21-.84,2.23-1.76,3.04-2.74.81-.99,1.28-1.93,1.41-2.84"/>
  </g>
</svg>